<?xml version="1.0" encoding="utf-8"?>
<!-- Generator: Adobe Illustrator 21.1.0, SVG Export Plug-In . SVG Version: 6.00 Build 0)  -->
<svg version="1.1" xmlns="http://www.w3.org/2000/svg" xmlns:xlink="http://www.w3.org/1999/xlink" x="0px" y="0px"
	 viewBox="0 0 300 300" style="enable-background:new 0 0 300 300;" xml:space="preserve">
<style type="text/css">
	.st0{fill:#FFD9D9;}
</style>
<g id="レイヤー_3">
	<circle class="st0" cx="64.6" cy="234.3" r="15.2"/>
	<circle class="st0" cx="199.9" cy="195.3" r="15.2"/>
	<ellipse transform="matrix(0.2845 -0.9587 0.9587 0.2845 51.5181 339.505)" class="st0" cx="253.2" cy="135.2" rx="3.6" ry="8.3"/>
</g>
<g id="レイヤー_1">
	<g>
		<g>
			<path d="M33.1,227.9c1.1,14.9,4.5,31.6,16,42.1c13,12,33.5,16.1,50.5,17.8c39.3,4,76.9-10.1,110.3-29.8
				c17.2-10.2,34.6-21.1,45.9-38.2c1.8-2.7-2.6-5.3-4.4-2.6c-9.4,14.2-23.5,23.8-37.8,32.6c-15.3,9.3-31.1,17.8-48,24
				c-32.8,11.8-73,15.1-104.7-1.9c-16.5-8.8-21.3-26.5-22.6-44C38,224.6,32.9,224.6,33.1,227.9L33.1,227.9z"/>
		</g>
	</g>
	<g>
		<g>
			<path d="M238.6,144.8c2.1-5.5,11-16.7,16.8-9c7,9.2-0.5,19.8-9,24.3c-2.9,1.5-0.3,5.9,2.6,4.4c11.6-6.1,20.4-22.8,8.8-33.6
				c-9.3-8.8-20.9,4.2-24.2,12.6C232.5,146.5,237.4,147.8,238.6,144.8L238.6,144.8z"/>
		</g>
	</g>
	<g>
		<g>
			<path d="M119.7,214.2c-1.6-1-5.8-2.9-6.2-5c-0.5-2.2,2.4-4.6,3.8-5.8c2.4-2.2-1.2-5.8-3.6-3.6c-2.8,2.5-5.7,5.9-5.2,10
				c0.6,4.5,5.3,6.6,8.7,8.9C119.9,220.4,122.4,216,119.7,214.2L119.7,214.2z"/>
		</g>
	</g>
</g>
<g id="レイヤー_2">
	<g>
		<g>
			<path d="M82.1,43.2C55.9,51,38.8,74.4,27.3,97.9C15,123.1,8.7,151.6,16.4,179.1c3.7,13.2,8.9,26.2,15.1,38.4
				c1.5,2.9,5.9,0.3,4.4-2.6c-6.6-13-12.1-27-15.6-41.2c-4-16.3-2.4-33.4,2.1-49.4c4.7-16.4,12.4-32.2,22.3-46.1
				C54.4,64.6,67.1,53,83.4,48.1C86.6,47.2,85.2,42.3,82.1,43.2L82.1,43.2z"/>
		</g>
	</g>
	<g>
		<g>
			<path d="M91.4,41.7c18.8-18.8,44.7-28.9,71.2-28.1c26.1,0.8,51.9,9.4,73.4,24.1c30,20.6,47.6,59,49.3,94.8
				c1.3,27.6-8.2,53.7-25.9,74.8c-2.1,2.5,1.5,6.1,3.6,3.6c16.3-19.4,26.4-42.8,27.4-68.2c0.9-21.6-4.3-43.2-13.5-62.6
				c-7.4-15.6-17.4-30.7-31.1-41.5C224.3,21.8,197.9,11.6,170.8,9c-30.8-2.9-61.1,7.1-83.1,29C85.4,40.4,89,44,91.4,41.7L91.4,41.7z
				"/>
		</g>
	</g>
	<g>
		<path d="M108.6,112.7c-4.3,1.4-8.5,2.8-12.6,4.1c-3.5,1-6.9,2-10,2.8c-4.3,1.1-7.1-0.3-8.3-3.8c-1-2.9-2.5-7.7-3.9-12.4
			c-1.2-4.1-2.4-8.1-3.1-10.6c-1.1-4.1-0.1-7.2,4.5-8.7c4-1.3,8.4-2.8,12.6-4c3.5-1.1,7-2.1,10.1-2.8c3-0.8,6.5,0.4,7.7,3.8
			c1,2.9,2.4,7.3,3.7,11.7c1.5,4.9,2.9,9.7,3.5,12.2C113.8,108.4,112.1,111.6,108.6,112.7z M84.9,85.5c-9.6,2.9-10.3,3.3-9.5,6.5
			c0.5,2,1.3,4.6,2.1,7.4l10.6-3.2L84.9,85.5z M89.4,100.3l-10.6,3.2c1.1,3.6,2.1,7,2.9,9.2c1.1,3.2,2.1,3,11.6,0.2L89.4,100.3z
			 M103.9,91.4c-0.9-2.8-1.8-5.4-2.4-7.3c-1.1-3.3-1.8-3.1-12.1,0l3.2,10.7L103.9,91.4z M93.9,99l3.8,12.6c2.5-0.8,5-1.6,7.3-2.4
			c2.7-0.9,3.3-2.4,2.7-4.5c-0.6-2.4-1.6-5.7-2.6-9.1L93.9,99z"/>
	</g>
	<g>
		<path d="M105.2,155.5c-3.8,1.1-7.6,2.2-11.1,3.1c-3.5,0.9-6-0.7-6.9-3.3c-0.5-1.5-1-3-1.5-4.5c-0.4-1.5-0.8-2.9-1.2-4.2
			c-0.5-2.1,0-5.4,3.8-6.6c3.3-1.1,7.1-2.3,11-3.5l-2.1-6.9c-0.4-1.4,0.6-2.5,1.8-2.9c1.2-0.4,2.7,0,3.1,1.4l2.1,6.9
			c4-1.2,7.9-2.3,11.4-3.3c2.9-0.8,5.7,1.2,6.4,3.1c0.5,1.1,0.9,2.6,1.4,4.1c0.5,1.7,1,3.5,1.3,5c0.6,2.5-0.6,5.5-3.8,6.6
			c-3.5,1.2-7.2,2.5-11.1,3.6l3.9,13c0.4,1.3-0.6,2.4-1.9,2.8c-1.2,0.4-2.6,0.1-3-1.3L105.2,155.5z M100.8,140.8
			c-3.4,1-6.6,2.1-9.2,3c-1.5,0.5-2,1.8-1.8,2.8c0.2,0.9,0.5,2.1,0.9,3.2c0.9,3.1,1.4,4.6,4,3.9c2.8-0.7,6-1.5,9.3-2.5L100.8,140.8z
			 M108.8,149.6c3.3-1,6.5-2.1,9.3-3c2.3-0.8,2.1-1.9,0.9-5.7c-1.2-4-1.6-4.9-4-4.2c-2.7,0.7-6,1.7-9.4,2.7L108.8,149.6z"/>
	</g>
	<g>
		<g>
			<path d="M86.8,47.9c-4-1.9-7.2-4.9-8.7-9.2c-1.4-3.9-2.3-10.4,1-13.5c2.4-2.2-1.2-5.9-3.6-3.6c-4.4,4.1-4.2,11.4-2.8,16.9
				c1.5,6.2,5.8,11.1,11.5,13.8C87.1,53.7,89.7,49.3,86.8,47.9L86.8,47.9z"/>
		</g>
	</g>
	<g>
		<g>
			<path d="M109.9,245.9c4.7,0.9,9.1,2.3,13.5,4.1c2.7,1.1,4.4,1.3,7.1,0.3c8.6-3.2,17-7.3,25.4-10.9c3-1.3,0.4-5.7-2.6-4.4
				c-7.2,3.1-14.4,6.2-21.5,9.3c-1.6,0.7-3.3,1.9-5.2,1.7c-1.4-0.2-3.4-1.4-4.8-1.9c-3.5-1.3-7-2.2-10.7-3
				C108,240.3,106.6,245.2,109.9,245.9L109.9,245.9z"/>
		</g>
	</g>
	<g>
		<g>
			<path d="M39.3,209.4c7.1,12.6,22.3,17.4,35.8,13.2c14.6-4.6,24-17.1,29.2-30.9c1.2-3.1-3.8-4.4-4.9-1.4
				c-4.4,11.5-12.2,22.4-24.1,26.8c-11.7,4.4-25.3,1-31.6-10.3C42.1,204,37.7,206.5,39.3,209.4L39.3,209.4z"/>
		</g>
	</g>
	<g>
		<g>
			<path d="M132.1,184.1c7.4,12.9,23.1,19.6,37.4,15.1c14.2-4.5,28.5-16.6,31.4-31.7c0.6-3.2-4.3-4.6-4.9-1.4
				c-2.5,13-14.3,23.1-26.3,27.6c-12.6,4.7-26.6-0.6-33.2-12.2C134.9,178.7,130.5,181.3,132.1,184.1L132.1,184.1z"/>
		</g>
	</g>
	<g>
		<g>
			<path d="M106.1,195.4c9.1-1.9,18.3-3.9,27.4-5.8c3.2-0.7,1.9-5.6-1.4-4.9c-9.1,1.9-18.3,3.9-27.4,5.8
				C101.5,191.1,102.8,196,106.1,195.4L106.1,195.4z"/>
		</g>
	</g>
	<g>
		<g>
			<path d="M205.7,164.1c7.7-6.5,15.6-12.7,23.7-18.5c2.6-1.9,0.1-6.3-2.6-4.4c-8.5,6.1-16.8,12.5-24.7,19.3
				C199.6,162.6,203.2,166.2,205.7,164.1L205.7,164.1z"/>
		</g>
	</g>
</g>
</svg>
