<svg id="レイヤー_1" data-name="レイヤー 1" xmlns="http://www.w3.org/2000/svg" viewBox="0 0 493.96 186.73"><defs><style>.cls-1{fill:#333;}</style></defs><title>rogo</title><path class="cls-1" d="M497.28,142.13a6,6,0,0,1-1.54.45c-4.08,0-8.15,0-12.22,0h-1.26c.13,2.13.33,4.15.37,6.17.11,6.67.2,13.33.23,20,0,3.67-.11,7.35-.16,11-.06,4.42-1.76,6.59-6.08,7.65a36.46,36.46,0,0,1-11.92.65c-1.54-.13-3.09-.34-4.62-.62a1.56,1.56,0,0,1-1.06-.84c-.58-2.28-1.07-4.59-1.56-6.89-.15-.72.07-1.32.94-1,3.83,1.63,7.77.94,11.71.68a4,4,0,0,0,2.82-1.32,4.28,4.28,0,0,0,1.44-3.12c.06-8.11.22-16.22.32-24.33,0-2.23-.05-4.46-.15-6.69-.07-1.65-.12-1.62-1.71-1.64-6.51-.12-13-.28-19.54-.38-2.27,0-4.55.07-6.83.09-1.36,0-1.86-.48-2-1.83a23.41,23.41,0,0,1-.21-2.5,3.9,3.9,0,0,1,.46-1.3c.05-.13.19-.28.16-.37-.51-1.33.42-1.17,1.18-1.15,8.27.19,16.54.51,24.81.55,6.46,0,12.93-.33,19.39-.43a48.42,48.42,0,0,1,5.23.39c.7.06,1,.47,1.08,1.19.16,1.29.45,2.57.69,3.85Z" transform="translate(-3.32 -2.2)"/><path class="cls-1" d="M430.56,188.93a2.17,2.17,0,0,1-.92-2.17q.11-5.81.13-11.62c0-5.59,0-11.19,0-16.78,0-1.91,0-3.83,0-6-1.07,1-2,2-3,2.81q-3.32,2.74-6.72,5.39a1.67,1.67,0,0,1-2.72-.42,31.86,31.86,0,0,0-2.95-3.31c-.68-.69-.67-1.17,0-1.87,3.46-3.38,6.9-6.78,10.28-10.24,4.42-4.52,7.76-9.85,11.11-15.15.49-.77.82-1.63,1.3-2.39.15-.24.62-.52.83-.45,2.37.79,4.74,1.63,7.07,2.55.19.08.31,1,.11,1.3-1,1.62-2.16,3.15-3.23,4.74-.82,1.22-1.59,2.47-2.37,3.71-1,1.59-2,3.17-3,4.78-.18.3-.37.82-.23,1,1.64,2.61,1.5,5.54,1.46,8.39-.16,10-.45,20.06-.66,30.08a25.7,25.7,0,0,0,.28,2.74,3.1,3.1,0,0,1-.85,2.83Z" transform="translate(-3.32 -2.2)"/><path class="cls-1" d="M37.49,14.7c-3.72-.11-7.27-.31-10.82-.28-3,0-5.9.28-8.85.49-.93.07-1.32-.18-1.28-1.16.07-1.56.07-3.13,0-4.68,0-1,.25-1.38,1.25-1.41,3.83-.13,7.67-.45,11.5-.43,5.46,0,10.93.29,16.4.45.75,0,1.22.23,1.09,1.13-.5,3.52-.78,7.07-1.49,10.54-.93,4.53-2.13,9-3.35,13.47a30.31,30.31,0,0,1-1.86,4.23l20.65,4.32c.58-3.79,1.26-7.48,1.65-11.2a63.47,63.47,0,0,0,.1-7.17c0-.74.19-1.13,1-1.08,1.76.1,3.51.17,5.27.25.9,0,1.07.58,1.08,1.37.13,6.48.18,13-1.49,19.29a1.54,1.54,0,0,0,0,.43c2.87,1,5.74,2,8.55,3.12,1.45.57,2.8,1.36,4.21,2A1.06,1.06,0,0,1,81.72,50c-.69,1.66-1.39,3.31-2,5-.36.92-.89.9-1.7.54-3.57-1.6-7.16-3.14-10.75-4.7-.28-.13-.59-.21-.92-.33a4,4,0,0,0-.29.41,57.23,57.23,0,0,1-24.4,27c-2.3,1.3-2.37,1.27-4.14-.65-.62-.67-1.12-1.46-1.69-2.17s-.42-1.35.42-1.91a65.45,65.45,0,0,0,12.09-9.79c4.15-4.47,7.07-9.73,9.82-15.33-2.29-.48-4.46-1-6.65-1.38C48,46,44.47,45.37,41,44.71a1.59,1.59,0,0,0-2,.92,24,24,0,0,1-5.07,6.62c-2.25,2.1-4.3,4.41-6.59,6.46a14.5,14.5,0,0,1-10.61,4A11,11,0,0,1,6.28,53c-.49-4.16.23-8,3.33-11a10.8,10.8,0,0,1,6.86-3.07c4.53-.41,9.07-.76,13.61-1.12a5,5,0,0,1,1,0c2.18.22,2.34.23,2.84-2,1-4.24,1.81-8.51,2.61-12.79.41-2.15.61-4.35.88-6.53C37.43,16,37.44,15.52,37.49,14.7ZM16.78,55.32c.27,0,.79-.1,1.29-.23,4.63-1.2,7.78-4.44,10.69-7.92,1.22-1.46.44-3-1.48-3.26a7.12,7.12,0,0,0-1.9-.06,20.13,20.13,0,0,0-9.72,4A12.14,12.14,0,0,0,13.71,50a3.05,3.05,0,0,0-.29,3.68C14.09,54.91,15.22,55.29,16.78,55.32Z" transform="translate(-3.32 -2.2)"/><path class="cls-1" d="M216.35,14.7c-3.76-.11-7.31-.31-10.86-.28-3,0-5.9.28-8.85.49-1,.08-1.39-.23-1.35-1.24q.08-2.34,0-4.68c0-.92.33-1.3,1.24-1.33,3.91-.14,7.82-.44,11.73-.43,5.27,0,10.54.21,15.8.42,1.67.06,1.58.18,1.35,1.81-.4,2.8-.52,5.65-1.06,8.42-.86,4.38-1.88,8.74-3,13.06A61.07,61.07,0,0,1,219,37.08l20.48,4.28c.43-2.55.9-5,1.26-7.56.52-3.59,1.14-7.19.55-10.85-.12-.69.19-1.07.93-1,1.8.09,3.6.16,5.39.26,1.1.06,1,.85,1.05,1.65.09,6.51.2,13-1.68,19.48,1.54.49,3,.87,4.39,1.43,2.77,1.12,5.49,2.36,8.25,3.51,1.06.44,1.22,1.09.78,2.08-.64,1.46-1.26,2.93-1.82,4.42-.4,1.06-1,1.13-1.93.69-3.64-1.64-7.32-3.2-11-4.79a5.47,5.47,0,0,0-.61-.2,39,39,0,0,1-1.77,3.93c-5.8,9.94-13.15,18.37-23.5,23.84-1.16.61-2.08.68-2.94-.41-.74-.94-1.49-1.86-2.26-2.78s-.37-1.32.42-1.92c3.3-2.46,6.67-4.83,9.77-7.53,5.46-4.77,8.93-11,12.13-17.58-2.34-.49-4.54-1-6.77-1.4-3.41-.64-6.83-1.22-10.24-1.88a1.67,1.67,0,0,0-2.18,1c-1.59,3.46-4.43,5.92-7.05,8.55-1.52,1.53-3,3.11-4.63,4.51-3.28,2.83-7.08,4.44-11.47,3.77-6.94-1.05-10.1-6.64-9.58-12.77S188.87,40,194.4,39c1.65-.29,3.32-.51,5-.64,3.18-.24,6.37-.41,9.56-.59a6.17,6.17,0,0,1,1,0c2,.23,2.25.22,2.69-1.81,1.07-4.88,2-9.78,2.92-14.68C215.9,19.25,216.05,17.13,216.35,14.7ZM205,43.79a19.37,19.37,0,0,0-11.6,5.09,8.73,8.73,0,0,0-.9,1.11,3.13,3.13,0,0,0-.26,3.69,3,3,0,0,0,3.24,1.58,17,17,0,0,0,4-1.16c3.06-1.3,5.21-3.76,7.46-6.08.83-.86,1.44-1.8,1-3s-1.64-1.1-2.66-1.23Z" transform="translate(-3.32 -2.2)"/><path class="cls-1" d="M313.33,21.1c1.33,3,.73,5.86.11,8.72-.83,3.78-1.41,7.63-2.45,11.34A40.6,40.6,0,0,1,298.68,60.8a21.59,21.59,0,0,1-7.07,3.85,7.14,7.14,0,0,1-7.91-2.09c-2.93-3.25-5.59-6.85-6.26-11.25-.46-3-.07-6.13.14-9.19a28.06,28.06,0,0,1,4.52-13.24,26.25,26.25,0,0,1,9.21-8.6,38.46,38.46,0,0,1,22.78-5.18c4,.34,8.26.52,12,1.83,9.77,3.42,16.48,10.07,18.2,20.64a30.89,30.89,0,0,1-4.51,21.71c-2.63,4.24-6.71,7.13-11.13,9.24a72.49,72.49,0,0,1-22.74,6.77,5.13,5.13,0,0,1-2.82-.1c-.59-.32-.77-1.48-1.05-2.3s-.58-1.91-.81-2.87.05-1.3,1.05-1.38a54.37,54.37,0,0,0,23.63-7.56c6.05-3.56,8.91-9.13,10-15.69a21,21,0,0,0-4.22-16.48,9.24,9.24,0,0,0-2.07-2.16,30.21,30.21,0,0,0-14.32-5.64C314.74,21.05,314.11,21.1,313.33,21.1Zm-7.62,6.81c0-.68-.12-1.67-.22-2.67a1.91,1.91,0,0,0-1.67-1.75c-1.64-.43-3.05.36-4.54.71a14.79,14.79,0,0,0-8.12,5.23,34.69,34.69,0,0,0-7.46,18.38,14.31,14.31,0,0,0,0,3.92,6.23,6.23,0,0,0,2.76,4.06c1.2.82,2.42.67,3.83.5A7.74,7.74,0,0,0,296,53a62.73,62.73,0,0,0,7.84-15.14A30.88,30.88,0,0,0,305.71,27.91Z" transform="translate(-3.32 -2.2)"/><path class="cls-1" d="M106.51,140.84c-3.06-.13-6-.35-9-.36-3.75,0-7.51.11-11.26.25-1,0-1.32-.24-1.29-1.27,0-1.63-.09-3.26-.2-4.89-.06-1.09.54-1.51,1.5-1.58,3.1-.23,6.21-.48,9.32-.66,3.51-.21,7-.35,10.54-.52,0-1.44,0-2.82,0-4.2-.1-3.55-.25-7.1-.33-10.65a1.21,1.21,0,0,1,.56-1,38.75,38.75,0,0,1,5.69-1.23c2-.19,2.58.65,2.52,2.67-.14,4.47-.2,8.94-.29,13.42,0,.23,0,.46.09.9,2.39,0,4.73-.05,7.08,0,3.79.11,7.58.29,11.37.47,1.72.08,1.74.09,1.74-1.63l.06-15.23v-.72c0-2.06,0-2.07,2.11-2.09,1.36,0,2.72,0,4.08,0,1.11-.06,1.32.44,1.32,1.43,0,5.36.1,10.71.18,16.07,0,1.68.07,1.74,1.76,1.86,5.9.4,11.8.79,17.7,1.1,2.2.12,2.23,0,2.32,2.26,0,1.2,0,2.4,0,3.6s-.54,1.52-1.54,1.55c-.56,0-1.12,0-1.67,0L143.37,140c-.39,0-.79,0-1.22.06-.27,2.19-.48,4.33-.78,6.46-2.25,15.82-10.45,27.48-24.68,34.76-3.54,1.81-7.32,3.15-11,4.65a4.09,4.09,0,0,1-2.1.26,1.82,1.82,0,0,1-1.27-1c-.39-1.61-.53-3.28-.89-4.91-.23-1,.08-1.44,1.09-1.62,9.35-1.66,17-6.44,23.24-13.38,3.3-3.64,4.82-8.23,6-12.9a43.27,43.27,0,0,0,1.23-12c0-.84-.31-1.12-1.13-1.09q-8.32.36-16.64.67c-.75,0-1,.33-1,1.11.11,5.76.18,11.51.27,17.27,0,.08,0,.15,0,.23,0,3.06-.41,3.14-2.65,3.1-1.28,0-2.56.06-3.83.14a1,1,0,0,1-1.19-1.16c0-2.14.15-4.28.11-6.42-.08-4.19-.24-8.39-.37-12.58C106.58,141.42,106.54,141.19,106.51,140.84Z" transform="translate(-3.32 -2.2)"/><path class="cls-1" d="M352.4,128.64a71.41,71.41,0,0,0,13.83-21.19c.49-1.16,1.14-1.66,2.33-1.47a19.08,19.08,0,0,1,3.05.55c1.36.43,1.72,1.21,1.36,2.6-.49,1.86-1,3.69-1.54,5.54-.1.37-.16.76-.27,1.29,2.2-.1,4.27-.28,6.33-.29,8.42,0,16.85,0,25.28,0,.77,0,1.14.27,1.14,1.13,0,1.54.19,3.08.21,4.63,0,.93-.7,1.13-1.49,1.16-2.59.1-5.19.18-7.78.34a1.57,1.57,0,0,0-1.18.67,19,19,0,0,1-4.19,6.36c-1.23,1.41-2.49,2.79-3.94,4.42,2.9,1.73,5.57,3.59,8.46,5,3.51,1.68,7.2,3,10.85,4.4.95.35,1.27.75.8,1.64-.87,1.62-1.75,3.22-2.63,4.83a1.22,1.22,0,0,1-1.59.65,20.26,20.26,0,0,1-6.08-2.68c-1.6-1.07-3.6-1.52-5.34-2.39-3.29-1.63-6.55-3.33-9.78-5.07a1.53,1.53,0,0,0-1.9.13c-3.7,2.58-7.29,5.35-11.2,7.57-2.88,1.63-6.17,2.54-9.32,3.68a2.16,2.16,0,0,1-1.54-.47c-1.11-.75-2.14-1.6-3.39-2.54,0,.58-.07.88-.08,1.18q-.26,12-.49,24.09a6.15,6.15,0,0,0,0,1c.18,1.37.14,1.4-1.2,1.35-1.68-.06-3.35-.11-5-.1-.8,0-1.19-.29-1.2-1.11,0-1-.05-2-.06-3,0-9.4-.13-18.79-.08-28.19,0-7.27.26-14.54.37-21.81,0-1,.41-1.57,1.5-1.49l4.54.31c.69.05,1,.27,1,1.12C352.12,124.42,352.29,126.4,352.4,128.64Zm.33,2.48v15.66a65.27,65.27,0,0,0,21.7-10.85l-9.66-10.29c-.3.38-.53.64-.73.93-2.1,3-4.18,6-6.28,8.92-.82,1.16-1.21,1.2-2.05.06C354.64,134.08,353.67,132.53,352.73,131.12Zm26.91.33c3.27-2.81,6.24-5.44,7.2-9.65l-16.13.56Z" transform="translate(-3.32 -2.2)"/><path class="cls-1" d="M38.27,142.39c-3.27.26-6.32.66-9.38.73-4.39.1-8.79-.05-13.19-.06-3.55,0-7.1,0-10.66.1-.85,0-1.24-.17-1.28-1.08-.09-1.92-.22-3.83-.42-5.74-.11-1,.28-1.34,1.15-1.39,3.82-.22,7.64-.53,11.47-.63,5.15-.14,10.3-.1,15.45-.16,6.08-.07,12.15-.2,18.23-.23,5.2,0,10.39.08,15.59.12,3.44,0,6.88.1,10.32.08,1,0,1.32.39,1.39,1.32.13,1.82.38,3.64.47,5.47,0,.25-.64.76-1,.78-2.78.22-5.58.49-8.37.46-5.83-.06-11.65-.3-17.48-.46H48.71c0,3.2.13,6.35,0,9.49a24.65,24.65,0,0,1-4,12.24A65.78,65.78,0,0,1,28,180.91a28.41,28.41,0,0,1-9.2,4.52c-1.06.3-1.59.08-2-1-.79-2-1.72-4-2.58-5.93-.5-1.14-.37-1.32.87-1.37a1.86,1.86,0,0,0,.57-.16,44.11,44.11,0,0,0,18.81-13.61c4-5,4.81-10.84,4.31-17C38.66,145,38.43,143.66,38.27,142.39Z" transform="translate(-3.32 -2.2)"/><path class="cls-1" d="M205.43,143.43c3.1,2.19,3.89,5.39,4,8.78s.06,6.95.05,10.43c0,6.8-.06,13.6-.07,20.39a18.76,18.76,0,0,0,.24,2.23c.08.69-.15,1.06-.91,1.06q-3.06,0-6.11,0c-.95,0-1.36-.28-1.3-1.32.27-4.67.51-9.34.68-14a170.33,170.33,0,0,0-.69-21.31,5,5,0,0,0-.3-1.28c-.5-1.31-1.2-1.52-2.34-.74-5.33,3.66-11.18,6.32-17,9-4,1.85-7.91,3.8-11.84,5.75-.86.43-1.34.39-1.79-.54-.84-1.72-1.78-3.39-2.72-5.07-.34-.61-.19-.92.41-1.21,5.83-2.8,11.69-5.53,17.46-8.44,4-2,7.9-4.2,11.76-6.44a33.61,33.61,0,0,0,11.95-11.89c3-4.92,5.74-10,7-15.67a31.46,31.46,0,0,0,.59-4.75c.07-.87.33-1.22,1.23-1.13,2.06.2,4.14.32,6.2.58a1.37,1.37,0,0,1,.91.93,18.86,18.86,0,0,1-1.34,9.62c-1.71,4-3.4,8.1-5.22,12.09C213.92,135.83,209.9,139.75,205.43,143.43Z" transform="translate(-3.32 -2.2)"/><path class="cls-1" d="M254.77,177.88c-3.64.49-6.57-.93-8.83-4.22a43.58,43.58,0,0,1-5.64-11.32c-.37-1.13-.07-1.68,1.06-1.83,2.29-.29,4.58-.61,6.88-.82a1.44,1.44,0,0,1,1.11.73c.64,1.33,1.11,2.73,1.71,4.08a9.25,9.25,0,0,0,3.74,4.4,2.26,2.26,0,0,0,1.66.28c8.69-3.19,17.07-7,24.47-12.68a109.59,109.59,0,0,0,19.81-20.1,38.77,38.77,0,0,1,3.46-3.79,1.86,1.86,0,0,1,2.52-.17c1.27.83,2.6,1.57,3.78,2.52s1.31,2,.27,3.31a119.59,119.59,0,0,1-26.67,25.51c-4.61,3.14-9.18,6.33-13.85,9.37S260.67,178.09,254.77,177.88Z" transform="translate(-3.32 -2.2)"/><path class="cls-1" d="M115.14,25.72h-9.63c-2.88,0-5.76,0-8.63.09-1.17,0-1.48-.4-1.34-1.48.2-1.58.35-3.18.48-4.77.08-1,.54-1.37,1.6-1.35,6,.07,12,.06,18,.08h1.67c.22-2.74.47-5.4.62-8,.12-2.24.17-4.48.19-6.71,0-1,.38-1.37,1.37-1.33,1.75.06,3.51.09,5.27,0,1,0,1.43.41,1.37,1.34-.14,2.15-.27,4.3-.5,6.44-.28,2.7-.67,5.38-1,8.25h5.22c2,0,3.92,0,5.87-.06.89,0,1.21.29,1.13,1.2-.14,1.59-.17,3.2-.26,4.8-.08,1.4-.53,1.78-2,1.74-3.43-.09-6.86-.15-10.3-.28a1.34,1.34,0,0,0-1.58,1.1c-4.07,11.65-8.4,23.2-14.91,33.77-1.36,2.2-2.72,4.41-4.09,6.6a1.37,1.37,0,0,1-2,.49c-1.2-.63-2.46-1.14-3.66-1.77a1.47,1.47,0,0,1-.63-2.24c2.5-4.31,5.1-8.57,7.56-12.91a77.43,77.43,0,0,0,6.25-13,24.23,24.23,0,0,1,2-4.22C114.48,31.08,114.76,28.48,115.14,25.72Z" transform="translate(-3.32 -2.2)"/><path class="cls-1" d="M137.53,59.14c0-1.18,0-2.28,0-3.39,0-4.4-.17-8.81,1-13.11a8.1,8.1,0,0,1,3.55-5.21,3,3,0,0,1,3.17-.26,26.77,26.77,0,0,1,3.19,2.07,1.35,1.35,0,0,1,.09,1.26,6.53,6.53,0,0,0-2.46,4.9c-.43,4.53-.7,9.07-1,13.61-.08,1,.36,1.5,1.38,1.81,5.54,1.65,10.88,3.76,15.48,7.39,1,.76,1.86,1.64,2.79,2.45a1,1,0,0,1,.11,1.65c-1.13,1.3-2.23,2.62-3.35,3.93-.45.54-.9.5-1.45.09-3-2.3-6-4.6-9.11-6.84-1-.75-2.16-1.35-3.25-2-.79-.47-1.33-.21-1.67.62a18.11,18.11,0,0,1-6.14,7.36,15.74,15.74,0,0,1-13.22,3c-.9-.17-1.82-.25-2.72-.42-4.86-.87-9.46-6.35-8-12.14a7.53,7.53,0,0,1,3.24-4.44c3.68-2.5,7.81-3.13,12.13-2.87C133.33,58.71,135.39,59,137.53,59.14Zm-5.05,5.14a25.49,25.49,0,0,0-3.84.38,27.15,27.15,0,0,0-4.54,1.67,1.79,1.79,0,0,0-.79,2.46,3.62,3.62,0,0,0,3.48,2.78,19.1,19.1,0,0,0,8.65-1.37A5.89,5.89,0,0,0,137.32,69c1.56-1.56,1.13-3.43-1-4A30.94,30.94,0,0,0,132.48,64.28Z" transform="translate(-3.32 -2.2)"/><path class="cls-1" d="M333,144.66c-.66.86-1.17,1.45-1.59,2.1-1.2,1.88-2.42,3.75-3.53,5.69s-2.08,2-3.43.33a20.91,20.91,0,0,1-2.07-3.07,2,2,0,0,1,.17-1.51c2.85-6.16,5.86-12.25,8.58-18.47a92.81,92.81,0,0,0,6.45-21l0-.11c.17-.83.08-2,.59-2.38s1.66-.09,2.53,0l4.31.18a1.4,1.4,0,0,1,1.52,1.7,5.64,5.64,0,0,1-.25,1.41q-3.3,9.62-6.64,19.22a6.77,6.77,0,0,0-.22,4.72c1.11,3.24.6,6.64.53,10-.15,6.43-.17,12.86-.22,19.29,0,1.84,0,3.68.1,5.52.24,4.66.57,9.32.79,14,.08,1.55-.05,3.11-.06,4.66,0,.83-.44,1.11-1.22,1.11-1.55,0-3.11,0-4.67.11-1.08.05-1-.73-1-1.38-.05-2.44-.05-4.88-.09-7.32l-.3-21.58-.18-12.11C333.11,145.46,333.07,145.24,333,144.66Z" transform="translate(-3.32 -2.2)"/><path class="cls-1" d="M362.38,188.66a2.25,2.25,0,0,1-2.42-1.38c-.81-1.69-1.58-3.4-2.4-5.09-.44-.9-.14-1.34.78-1.52,2.78-.54,5.57-1,8.34-1.64a44.68,44.68,0,0,0,11.7-4.49c7.12-3.83,14.11-7.85,20.1-13.39a1.45,1.45,0,0,1,1.34-.2c1.91,1.09,3.78,2.24,5.59,3.48.87.6.45,1.35-.21,1.88-2.34,1.86-4.62,3.84-7.09,5.52a127.62,127.62,0,0,1-25.27,13.58c-3.14,1.22-6.43,2.06-9.65,3.07C362.85,188.58,362.49,188.63,362.38,188.66Z" transform="translate(-3.32 -2.2)"/><path class="cls-1" d="M30.85,112.77c10,.28,18.51.53,27.05.73,1.26,0,1.73.46,1.61,1.7-.19,2-.36,4-.44,6,0,1.09-.65,1.07-1.43,1-5-.3-9.89-.72-14.83-.84-6.51-.16-13-.11-19.53-.1-1,0-1.53-.15-1.53-1.33,0-1.75-.18-3.5-.3-5.26-.06-.78.45-1,1-1C25.74,113.29,29,113,30.85,112.77Z" transform="translate(-3.32 -2.2)"/><path class="cls-1" d="M362.77,175.31a2.75,2.75,0,0,1-2.73-1.82c-.6-1.3-1.05-2.67-1.55-4-.31-.83.37-.93.88-1.09,2.78-.87,5.6-1.63,8.35-2.59,8.18-2.84,15.82-6.67,22.24-12.64a1.54,1.54,0,0,1,2-.1c1.35.83,2.64,1.78,3.91,2.74a.92.92,0,0,1,0,1.54,69.23,69.23,0,0,1-30.63,17.57C364.44,175.11,363.6,175.17,362.77,175.31Z" transform="translate(-3.32 -2.2)"/><path class="cls-1" d="M455.41,120.13c-1.75-.11-3.5-.26-5.25-.3a1.19,1.19,0,0,1-1.33-1.33c0-1.63-.06-3.27,0-4.91.05-1,.77-1.29,1.69-1.22,3.1.22,6.21.52,9.32.65a189.27,189.27,0,0,0,27-.75c.35,0,.71-.06,1.07-.06,3.89,0,3.89,0,4.27,3.82,0,.43.15.87.2,1.3.15,1.29-.25,1.78-1.57,1.81l-17.24.43-18.2.46Z" transform="translate(-3.32 -2.2)"/><path class="cls-1" d="M240.29,124.65c.21-.73.59-2.07,1-3.4.67-2.2.68-2.22,3-1.62,7.95,2,15.3,5.34,21.55,10.78a17.74,17.74,0,0,1,2.64,3.08,3,3,0,0,1-.25,4c-1,1.15-2.33,2.08-3.33,3.26s-1.82.81-2.71,0c-1.08-1-2.2-2-3.24-3a45.38,45.38,0,0,0-16.52-10.14C241.37,127.11,240.11,126.89,240.29,124.65Z" transform="translate(-3.32 -2.2)"/><path class="cls-1" d="M416.68,128.92a3.9,3.9,0,0,1,.63-.85,74,74,0,0,0,16.43-17.79,1.76,1.76,0,0,1,2.24-.8c1.43.51,2.9.9,4.33,1.39s1.49.91.9,2.13a38.59,38.59,0,0,1-9.72,12c-3.36,3-6.8,5.81-10.18,8.74-.65.56-1.18.65-1.7-.08-.85-1.2-1.71-2.4-2.53-3.63A5.21,5.21,0,0,1,416.68,128.92Z" transform="translate(-3.32 -2.2)"/><path class="cls-1" d="M386.74,149.42a10.91,10.91,0,0,1-1.54,1.73,51.87,51.87,0,0,1-11.56,6.73c-4.19,1.66-8.46,3.13-12.71,4.62a1.46,1.46,0,0,1-1.3-.32c-1-1.35-1.88-2.77-2.74-4.21-.44-.73-.38-1.27.73-1.28a4.27,4.27,0,0,0,1.71-.48c6-2.8,12-5.57,18-8.46a24.3,24.3,0,0,0,4.06-2.74c1.91-1.49,1.69-1.27,3,.37a26.81,26.81,0,0,1,1.61,2.23A14.76,14.76,0,0,1,386.74,149.42Z" transform="translate(-3.32 -2.2)"/><path class="cls-1" d="M141.2,27.47c6.77.16,13.05,1.18,18.82,4.21a42.27,42.27,0,0,1,5.68,4,1.49,1.49,0,0,1,.3,1.42,32,32,0,0,1-2.79,3.57c-.22.25-.8.27-1.21.24a2.4,2.4,0,0,1-.94-.48c-6.23-4.31-13.32-6-20.71-6.73a10.52,10.52,0,0,0-2.62.19c-1,.17-1.6,0-1.68-1.2a19.18,19.18,0,0,0-.47-3.55c-.27-1,.17-1.29,1-1.34.24,0,.48-.06.72-.08Z" transform="translate(-3.32 -2.2)"/><path class="cls-1" d="M74.91,110.84c0-1.44,0-2.88,0-4.32,0-.31.43-.85.68-.86a42.79,42.79,0,0,1,4.53,0,1.65,1.65,0,0,1,1.6,1.87c0,3.71,0,7.42,0,11.13,0,1.81-.59,2.22-2.45,2.33a16.23,16.23,0,0,0-2.61.36c-.88.2-1.27,0-1.32-1-.18-3.19-.39-6.38-.59-9.57Z" transform="translate(-3.32 -2.2)"/><path class="cls-1" d="M157.47,117.64c0-1.32,0-2.63,0-4,0-.68.22-1.08.95-1.07,1.31,0,2.64-.07,4,0s2,.73,2,2.16c0,3.43,0,6.86,0,10.28,0,2.35-.41,2.74-2.7,3-.8.08-1.59.21-2.37.36s-1.33-.08-1.38-1.07c-.15-3.23-.37-6.46-.56-9.68Z" transform="translate(-3.32 -2.2)"/><path class="cls-1" d="M146.33,119.69c0-1.87,0-3.75,0-5.62,0-.95.45-1.29,1.29-1.33s1.59-.12,2.39-.12c2,0,2.81.65,2.83,2.69,0,3.63-.07,7.26-.16,10.88a1.54,1.54,0,0,1-1.53,1.65c-.95.08-1.91.16-2.86.16a1.69,1.69,0,0,1-1.88-1.74c-.14-2.18-.23-4.38-.34-6.57Z" transform="translate(-3.32 -2.2)"/><path class="cls-1" d="M63.68,112.63c0-1.75,0-3.51,0-5.26,0-1.11.42-1.74,1.62-1.7.63,0,1.27-.07,1.91-.07,2.29,0,3,.59,3.05,2.84,0,3.59-.08,7.18-.19,10.76a1.49,1.49,0,0,1-1.54,1.6c-.92,0-1.83.18-2.74.19a1.75,1.75,0,0,1-2-1.78c-.14-2.19-.24-4.38-.36-6.57Z" transform="translate(-3.32 -2.2)"/></svg>